<svg width="24" height="24" viewBox="0 0 6000 6000" fill="none" xmlns="http://www.w3.org/2000/svg">
<rect width="6000" height="6000" fill="white"/>
<path d="M4499.5 3000C4499.5 3828.15 3828.15 4499.5 3000 4499.5C2171.85 4499.5 1500.5 3828.15 1500.5 3000C1500.5 2171.85 2171.85 1500.5 3000 1500.5C3828.15 1500.5 4499.5 2171.85 4499.5 3000Z" fill="black" stroke="black"/>
<path d="M4300 3000C4300 3717.97 3717.97 4300 3000 4300C2282.03 4300 1700 3717.97 1700 3000C1700 2282.03 2282.03 1700 3000 1700C3717.97 1700 4300 2282.03 4300 3000Z" fill="white"/>
<path d="M2900 1612H3100V2562H2900V1612Z" fill="black"/>
<path d="M2700 3600V3400H3300V3600H2700Z" fill="black"/>
<rect x="1655" y="2600" width="200" height="2700" transform="rotate(-90 1655 2600)" fill="black"/>
<g filter="url(#filter0_d_29_23)">
<path d="M1970 4020C2699.65 3700.42 2899.55 3350.88 2999.5 2502C3099.45 3350.88 3299.36 3700.42 4039 4010.01" stroke="black" stroke-width="200"/>
</g>
<defs>
<filter id="filter0_d_29_23" x="1925.88" y="2490.31" width="2155.73" height="1629.29" filterUnits="userSpaceOnUse" color-interpolation-filters="sRGB">
<feFlood flood-opacity="0" result="BackgroundImageFix"/>
<feColorMatrix in="SourceAlpha" type="matrix" values="0 0 0 0 0 0 0 0 0 0 0 0 0 0 0 0 0 0 127 0" result="hardAlpha"/>
<feOffset dy="4"/>
<feGaussianBlur stdDeviation="2"/>
<feComposite in2="hardAlpha" operator="out"/>
<feColorMatrix type="matrix" values="0 0 0 0 0 0 0 0 0 0 0 0 0 0 0 0 0 0 0.25 0"/>
<feBlend mode="normal" in2="BackgroundImageFix" result="effect1_dropShadow_29_23"/>
<feBlend mode="normal" in="SourceGraphic" in2="effect1_dropShadow_29_23" result="shape"/>
</filter>
</defs>
</svg>
