<svg width="24" height="24" viewBox="0 0 6000 6000" fill="none" xmlns="http://www.w3.org/2000/svg">
<rect width="6000" height="6000" fill="black"/>
<path d="M4499.5 3000C4499.5 3828.15 3828.15 4499.5 3000 4499.5C2171.85 4499.5 1500.5 3828.15 1500.5 3000C1500.5 2171.85 2171.85 1500.5 3000 1500.5C3828.15 1500.5 4499.5 2171.85 4499.5 3000Z" fill="white" stroke="white"/>
<path d="M4299.5 3000C4299.5 3717.69 3717.69 4299.5 3000 4299.5C2282.31 4299.5 1700.5 3717.69 1700.5 3000C1700.5 2282.31 2282.31 1700.5 3000 1700.5C3717.69 1700.5 4299.5 2282.31 4299.5 3000Z" fill="black" stroke="white"/>
<g filter="url(#filter0_d_76_2)">
<path d="M1970 4020C2699.65 3700.42 2899.55 3350.88 2999.5 2502C3099.45 3350.88 3299.36 3700.42 4039 4010.01" stroke="white" stroke-width="200"/>
</g>
<path d="M2900.5 1612.5H3099.5V2561.5H2900.5V1612.5Z" fill="white" stroke="white"/>
<path d="M2700.5 3599.5V3400.5H3299.5V3599.5H2700.5Z" fill="white" stroke="white"/>
<path d="M1655.5 2599.5V2400.5H4354.5V2599.5H1655.5Z" fill="white" stroke="white"/>
<defs>
<filter id="filter0_d_76_2" x="1925.88" y="2490.31" width="2155.73" height="1629.29" filterUnits="userSpaceOnUse" color-interpolation-filters="sRGB">
<feFlood flood-opacity="0" result="BackgroundImageFix"/>
<feColorMatrix in="SourceAlpha" type="matrix" values="0 0 0 0 0 0 0 0 0 0 0 0 0 0 0 0 0 0 127 0" result="hardAlpha"/>
<feOffset dy="4"/>
<feGaussianBlur stdDeviation="2"/>
<feComposite in2="hardAlpha" operator="out"/>
<feColorMatrix type="matrix" values="0 0 0 0 0 0 0 0 0 0 0 0 0 0 0 0 0 0 0.25 0"/>
<feBlend mode="normal" in2="BackgroundImageFix" result="effect1_dropShadow_76_2"/>
<feBlend mode="normal" in="SourceGraphic" in2="effect1_dropShadow_76_2" result="shape"/>
</filter>
</defs>
</svg>
